<svg width="82" height="82" viewBox="0 0 82 82" fill="none" xmlns="http://www.w3.org/2000/svg">
<path d="M23.7801 0H58.2201C71.34 0 82 10.66 82 23.78V58.22C82 64.5268 79.4947 70.5754 75.035 75.035C70.5754 79.4946 64.5269 82 58.2201 82H23.7801C10.6601 82 4.98533e-05 71.34 4.98533e-05 58.22V23.78C4.98533e-05 17.4732 2.50544 11.4246 6.96505 6.965C11.4247 2.50539 17.4732 0 23.7801 0ZM22.9601 8.2C19.0455 8.2 15.2912 9.75507 12.5232 12.5231C9.75512 15.2911 8.20005 19.0454 8.20005 22.96V59.04C8.20005 67.199 14.8011 73.8 22.9601 73.8H59.04C62.9546 73.8 66.7089 72.2449 69.4769 69.4769C72.245 66.7089 73.8 62.9546 73.8 59.04V22.96C73.8 14.801 67.1991 8.2 59.04 8.2H22.9601ZM62.5251 14.35C63.8843 14.35 65.1879 14.89 66.149 15.8511C67.1101 16.8122 67.65 18.1158 67.65 19.475C67.65 20.8342 67.1101 22.1378 66.149 23.0989C65.1879 24.06 63.8843 24.6 62.5251 24.6C61.1658 24.6 59.8622 24.06 58.9011 23.0989C57.94 22.1378 57.4001 20.8342 57.4001 19.475C57.4001 18.1158 57.94 16.8122 58.9011 15.8511C59.8622 14.89 61.1658 14.35 62.5251 14.35ZM41 20.5C46.437 20.5 51.6512 22.6598 55.4957 26.5043C59.3402 30.3488 61.5 35.5631 61.5 41C61.5 46.4369 59.3402 51.6512 55.4957 55.4957C51.6512 59.3402 46.437 61.5 41 61.5C35.5631 61.5 30.3489 59.3402 26.5044 55.4957C22.6599 51.6512 20.5 46.4369 20.5 41C20.5 35.5631 22.6599 30.3488 26.5044 26.5043C30.3489 22.6598 35.5631 20.5 41 20.5ZM41 28.7C37.7379 28.7 34.6093 29.9959 32.3026 32.3026C29.9959 34.6093 28.7001 37.7378 28.7001 41C28.7001 44.2622 29.9959 47.3907 32.3026 49.6974C34.6093 52.0041 37.7379 53.3 41 53.3C44.2622 53.3 47.3908 52.0041 49.6975 49.6974C52.0042 47.3907 53.3 44.2622 53.3 41C53.3 37.7378 52.0042 34.6093 49.6975 32.3026C47.3908 29.9959 44.2622 28.7 41 28.7Z" fill="#F8F8F8"/>
</svg>
