<svg width="72" height="82" viewBox="0 0 72 82" fill="none" xmlns="http://www.w3.org/2000/svg">
<path d="M57.1224 12.8467C53.9836 9.29161 52.2538 4.72608 52.2551 0H38.0663V56.4889C37.9569 59.5458 36.656 62.4413 34.4377 64.5656C32.2194 66.6899 29.2566 67.8773 26.1735 67.8778C19.6531 67.8778 14.2347 62.5933 14.2347 56.0333C14.2347 48.1978 21.8571 42.3211 29.7092 44.7356V30.34C13.8673 28.2444 0 40.4533 0 56.0333C0 71.2033 12.6735 82 26.1276 82C40.5459 82 52.2551 70.3833 52.2551 56.0333V27.3789C58.0087 31.4782 64.9165 33.6776 72 33.6656V19.5889C72 19.5889 63.3673 19.9989 57.1224 12.8467Z" fill="#F8F8F8"/>
</svg>
