<svg width="108" height="47" viewBox="0 0 108 47" fill="none" xmlns="http://www.w3.org/2000/svg">
<path d="M16.92 40.048C16.92 41.84 16.3653 43.2907 15.256 44.4C14.1467 45.4667 12.696 46 10.904 46H6.296C4.504 46 3.05333 45.4667 1.944 44.4C0.834667 43.2907 0.28 41.84 0.28 40.048V7.152C0.28 5.36 0.834667 3.93066 1.944 2.864C3.05333 1.75466 4.504 1.2 6.296 1.2H10.904C12.696 1.2 14.1467 1.75466 15.256 2.864C16.3653 3.93066 16.92 5.36 16.92 7.152V17.392H10.84V7.472C10.84 7.25866 10.7333 7.152 10.52 7.152H6.68C6.46667 7.152 6.36 7.25866 6.36 7.472V39.728C6.36 39.9413 6.46667 40.048 6.68 40.048H10.52C10.7333 40.048 10.84 39.9413 10.84 39.728V26.48H8.344L8.856 20.528H16.92V40.048ZM36.1075 40.304C36.1075 42.096 35.5528 43.5467 34.4435 44.656C33.3342 45.7227 31.8835 46.256 30.0915 46.256H25.4835C23.6915 46.256 22.2408 45.7227 21.1315 44.656C20.0222 43.5467 19.4675 42.096 19.4675 40.304V6.896C19.4675 5.104 20.0222 3.67466 21.1315 2.608C22.2408 1.49866 23.6915 0.943996 25.4835 0.943996H30.0915C31.8835 0.943996 33.3342 1.49866 34.4435 2.608C35.5528 3.67466 36.1075 5.104 36.1075 6.896V40.304ZM25.8675 6.896C25.6542 6.896 25.5475 7.00267 25.5475 7.216V39.984C25.5475 40.1973 25.6542 40.304 25.8675 40.304H29.7075C29.9208 40.304 30.0275 40.1973 30.0275 39.984V7.216C30.0275 7.00267 29.9208 6.896 29.7075 6.896H25.8675ZM52.528 20.592L51.888 26.544H45.36V46H39.28V7.152H38.32L38.96 1.2H53.808L53.168 7.152H45.36V20.592H52.528ZM70.8705 40.048L70.3585 46H56.3425V7.152H55.3825L56.0225 1.2H70.8705L70.2305 7.152H62.4225V20.592H69.5905L68.9505 26.544H62.4225V40.048H70.8705ZM78.86 33.2V39.984C78.86 40.1973 78.9667 40.304 79.18 40.304H81.74C81.9533 40.304 82.06 40.1973 82.06 39.984V28.464L77.004 26.224C76.62 26.096 76.0867 25.8827 75.404 25.584C74.7213 25.2427 74.1027 24.752 73.548 24.112C73.036 23.472 72.78 22.5973 72.78 21.488V6.896C72.78 5.104 73.3347 3.67466 74.444 2.608C75.5533 1.49866 77.004 0.943996 78.796 0.943996H82.124C83.916 0.943996 85.3667 1.49866 86.476 2.608C87.5853 3.67466 88.14 5.104 88.14 6.896V16.368L82.06 15.856V7.216C82.06 7.00267 81.9533 6.896 81.74 6.896H79.18C78.9667 6.896 78.86 7.00267 78.86 7.216V20.592L83.916 22.832C84.3 23.0027 84.8333 23.2373 85.516 23.536C86.1987 23.8347 86.796 24.304 87.308 24.944C87.8627 25.584 88.14 26.4587 88.14 27.568V40.304C88.14 42.096 87.5853 43.5467 86.476 44.656C85.3667 45.7227 83.916 46.256 82.124 46.256H78.796C77.004 46.256 75.5533 45.7227 74.444 44.656C73.3347 43.5467 72.78 42.096 72.78 40.304V33.2H78.86ZM90.0925 7.152V1.2H107.693V7.152H101.933V46H95.8525V7.152H90.0925Z" fill="white"/>
</svg>
